{
    "asset" : {
        "generator" : "Khronos glTF Blender I/O v3.4.49",
        "version" : "2.0"
    },
    "scene" : 0,
    "scenes" : [
        {
            "name" : "Scene",
            "nodes" : [
                0,
                1
            ]
        }
    ],
    "nodes" : [
        {
            "mesh" : 0,
            "name" : "Cube",
            "scale" : [
                61.74797058105469,
                1,
                62.02629852294922
            ]
        },
        {
            "mesh" : 1,
            "name" : "Cylinder",
            "scale" : [
                1,
                6.252756595611572,
                0.6738625168800354
            ],
            "translation" : [
                0,
                1.7540183067321777,
                27.752565383911133
            ]
        }
    ],
    "materials" : [
        {
            "doubleSided" : true,
            "name" : "Eau",
            "pbrMetallicRoughness" : {
                "baseColorFactor" : [
                    0.03079487755894661,
                    0.7325637340545654,
                    0.8000000715255737,
                    1
                ],
                "metallicFactor" : 0,
                "roughnessFactor" : 0.5
            }
        },
        {
            "doubleSided" : true,
            "name" : "Bois",
            "pbrMetallicRoughness" : {
                "baseColorFactor" : [
                    0.5814630389213562,
                    0.24960462749004364,
                    0.15871195495128632,
                    1
                ],
                "metallicFactor" : 0,
                "roughnessFactor" : 0.5
            }
        }
    ],
    "meshes" : [
        {
            "name" : "Cube",
            "primitives" : [
                {
                    "attributes" : {
                        "POSITION" : 0,
                        "TEXCOORD_0" : 1,
                        "NORMAL" : 2
                    },
                    "indices" : 3,
                    "material" : 0
                }
            ]
        },
        {
            "name" : "Cylinder",
            "primitives" : [
                {
                    "attributes" : {
                        "POSITION" : 4,
                        "TEXCOORD_0" : 5,
                        "NORMAL" : 6
                    },
                    "indices" : 7,
                    "material" : 1
                }
            ]
        }
    ],
    "accessors" : [
        {
            "bufferView" : 0,
            "componentType" : 5126,
            "count" : 22176,
            "max" : [
                0.9997324347496033,
                2.673604965209961,
                1.0085949897766113
            ],
            "min" : [
                -1.0110654830932617,
                -0.9986140131950378,
                -0.999923586845398
            ],
            "type" : "VEC3"
        },
        {
            "bufferView" : 1,
            "componentType" : 5126,
            "count" : 22176,
            "type" : "VEC2"
        },
        {
            "bufferView" : 2,
            "componentType" : 5126,
            "count" : 22176,
            "type" : "VEC3"
        },
        {
            "bufferView" : 3,
            "componentType" : 5123,
            "count" : 22176,
            "type" : "SCALAR"
        },
        {
            "bufferView" : 4,
            "componentType" : 5126,
            "count" : 1616,
            "max" : [
                9.82617473602295,
                1.1140637397766113,
                1
            ],
            "min" : [
                -1.155858039855957,
                -1.001712679862976,
                -45.358917236328125
            ],
            "type" : "VEC3"
        },
        {
            "bufferView" : 5,
            "componentType" : 5126,
            "count" : 1616,
            "type" : "VEC2"
        },
        {
            "bufferView" : 6,
            "componentType" : 5126,
            "count" : 1616,
            "type" : "VEC3"
        },
        {
            "bufferView" : 7,
            "componentType" : 5123,
            "count" : 2928,
            "type" : "SCALAR"
        }
    ],
    "bufferViews" : [
        {
            "buffer" : 0,
            "byteLength" : 266112,
            "byteOffset" : 0,
            "target" : 34962
        },
        {
            "buffer" : 0,
            "byteLength" : 177408,
            "byteOffset" : 266112,
            "target" : 34962
        },
        {
            "buffer" : 0,
            "byteLength" : 266112,
            "byteOffset" : 443520,
            "target" : 34962
        },
        {
            "buffer" : 0,
            "byteLength" : 44352,
            "byteOffset" : 709632,
            "target" : 34963
        },
        {
            "buffer" : 0,
            "byteLength" : 19392,
            "byteOffset" : 753984,
            "target" : 34962
        },
        {
            "buffer" : 0,
            "byteLength" : 12928,
            "byteOffset" : 773376,
            "target" : 34962
        },
        {
            "buffer" : 0,
            "byteLength" : 19392,
            "byteOffset" : 786304,
            "target" : 34962
        },
        {
            "buffer" : 0,
            "byteLength" : 5856,
            "byteOffset" : 805696,
            "target" : 34963
        }
    ],
    "buffers" : [
        {
            "byteLength" : 811552,
            "uri" : "data:application/octet-stream;base64,"
        }
    ]
}
